<svg width="27" height="33" viewBox="0 0 27 33" fill="none" xmlns="http://www.w3.org/2000/svg">
<path d="M21.229 27.456C21.3623 26.4728 21.2511 25.4719 20.9051 24.542C20.2173 23.4033 19.2314 22.4741 18.054 21.8549C17.697 21.6199 17.469 21.477 17.235 21.33C15.698 20.361 14.0831 19.3429 13.5011 17.9109C12.9201 19.3419 11.301 20.3609 9.76901 21.3289C9.46101 21.5239 9.15802 21.714 8.94802 21.852C7.76836 22.4758 6.78388 23.4132 6.10305 24.5609C5.76075 25.4844 5.64818 26.4773 5.77505 27.4539L21.229 27.456ZM22.696 23.715C23.2621 25.2253 23.4107 26.8603 23.1261 28.448C23.1255 28.7098 23.021 28.9607 22.8356 29.1456C22.6502 29.3305 22.3989 29.4342 22.137 29.434H4.86202C4.61556 29.4339 4.37811 29.3414 4.1965 29.1748C4.01488 29.0082 3.90227 28.7795 3.88101 28.534C3.59497 26.9279 3.74309 25.2746 4.31002 23.745C4.89702 22.461 5.97603 21.4509 7.86703 20.2079C8.19403 19.9929 8.45604 19.827 8.71804 19.663C10.186 18.737 11.747 17.752 11.747 16.763C11.747 15.774 10.186 14.7919 8.71804 13.8629C8.45704 13.6989 8.19503 13.533 7.86703 13.318C5.90403 12.028 4.81205 10.927 4.24105 9.54596C3.71273 7.9524 3.58734 6.25281 3.87606 4.59897C3.87921 4.33884 3.98463 4.0904 4.16952 3.90738C4.35441 3.72436 4.60389 3.62148 4.86404 3.62097H22.1341C22.3793 3.62087 22.6157 3.71223 22.7971 3.8772C22.9785 4.04216 23.0919 4.26886 23.115 4.51297C23.4143 6.19267 23.2916 7.92039 22.758 9.54095C22.188 10.921 21.095 12.023 19.132 13.313C18.799 13.532 18.5421 13.6939 18.2801 13.8589C16.8131 14.7839 15.2511 15.769 15.2511 16.759C15.2511 17.749 16.814 18.73 18.282 19.659C18.617 19.87 18.952 20.082 19.131 20.2C21.024 21.444 22.107 22.4329 22.695 23.7079L22.696 23.715ZM13.4961 15.615C14.0771 14.184 15.696 13.166 17.229 12.197C17.536 12.003 17.844 11.81 18.049 11.675C19.2766 11.0267 20.2813 10.0247 20.933 8.79895C21.2737 7.76864 21.374 6.67402 21.226 5.59897H5.77004C5.62198 6.67408 5.72257 7.76881 6.06405 8.79895C6.71559 10.0245 7.71989 11.0264 8.94705 11.675C9.15705 11.812 9.46003 12.004 9.76803 12.197C11.304 13.165 12.919 14.184 13.5 15.615H13.4961Z" fill="#333333"/>
<path d="M2.77301 0H24.223C24.5864 0.00045542 24.9461 0.0725712 25.2816 0.21225C25.6171 0.351928 25.9217 0.556421 26.178 0.813995C26.4356 1.0713 26.64 1.3768 26.7795 1.7131C26.919 2.0494 26.9909 2.4099 26.991 2.77399C26.9904 3.13797 26.918 3.49826 26.778 3.83423C26.6379 4.1702 26.433 4.47528 26.175 4.73199C25.918 4.99021 25.6127 5.19513 25.2763 5.33499C24.94 5.47485 24.5793 5.5469 24.215 5.547H2.77301C2.40891 5.54677 2.04845 5.47467 1.71228 5.33481C1.37611 5.19495 1.07085 4.99009 0.814026 4.73199C0.556179 4.47519 0.351453 4.17008 0.211609 3.83411C0.0717647 3.49814 -0.000457164 3.1379 -0.000976562 2.77399C-0.000620215 2.41053 0.0713767 2.05071 0.210876 1.71509C0.350376 1.37946 0.554632 1.07462 0.812012 0.817993C1.06828 0.56033 1.37289 0.35578 1.70837 0.216095C2.04386 0.0764102 2.40363 0.00434402 2.76703 0.0039978L2.77301 0ZM24.227 1.978H2.77301C2.56259 1.97809 2.36066 2.06107 2.211 2.20898C2.06333 2.3584 1.98034 2.55991 1.97998 2.76999C1.97973 2.87409 2.00004 2.97722 2.03967 3.07349C2.07931 3.16975 2.13751 3.25725 2.211 3.33099C2.36017 3.48001 2.56216 3.56411 2.77301 3.565H24.223C24.3273 3.56486 24.4306 3.54409 24.5269 3.50394C24.6231 3.46378 24.7105 3.40502 24.784 3.33099C24.8575 3.25725 24.9157 3.16975 24.9554 3.07349C24.995 2.97722 25.0153 2.87409 25.015 2.76999C25.0146 2.66562 24.9937 2.56236 24.9534 2.46609C24.913 2.36983 24.8541 2.28246 24.78 2.20898C24.6304 2.06009 24.428 1.97634 24.217 1.97598L24.227 1.978Z" fill="#333333"/>
<path d="M2.77301 27.4561H24.223C24.5872 27.4562 24.9478 27.5281 25.2841 27.6678C25.6204 27.8075 25.9259 28.0121 26.183 28.2701C26.4409 28.5267 26.6458 28.8316 26.7858 29.1674C26.9258 29.5032 26.9982 29.8632 26.999 30.2271C26.9974 30.9621 26.7048 31.6666 26.1851 32.1865C25.6655 32.7063 24.9611 32.9992 24.226 33.001H2.77301C2.40891 33.0008 2.04845 32.9287 1.71228 32.7888C1.37611 32.649 1.07085 32.4441 0.814026 32.186C0.556646 31.9294 0.352329 31.6246 0.21283 31.289C0.0733298 30.9533 0.00139394 30.5935 0.0010376 30.23C0.00168833 29.8663 0.0739657 29.5063 0.213806 29.1705C0.353647 28.8347 0.558312 28.5297 0.81604 28.273C1.07304 28.0153 1.37833 27.8107 1.71448 27.671C2.05062 27.5313 2.41101 27.4593 2.77502 27.459L2.77301 27.4561ZM24.227 29.4341H2.77301C2.56202 29.4352 2.36001 29.5197 2.211 29.669C2.13746 29.7425 2.0792 29.8299 2.03955 29.926C1.9999 30.0221 1.97964 30.1251 1.97998 30.229C1.98008 30.4404 2.06388 30.6432 2.21301 30.7931C2.36219 30.9421 2.56417 31.0261 2.77502 31.027H24.223C24.3281 31.027 24.4321 31.0064 24.5292 30.9662C24.6262 30.926 24.7144 30.867 24.7887 30.7927C24.863 30.7184 24.9219 30.6303 24.9621 30.5332C25.0023 30.4361 25.023 30.3321 25.023 30.2271C25.0234 30.1231 25.0031 30.0201 24.9635 29.924C24.9239 29.8278 24.8655 29.7405 24.792 29.6671C24.7185 29.5929 24.6312 29.5339 24.5349 29.4936C24.4386 29.4533 24.3354 29.4324 24.231 29.432L24.227 29.4341Z" fill="#333333"/>
<path d="M2.77396 33C2.40979 32.9998 2.04924 32.9278 1.71292 32.7881C1.3766 32.6484 1.07112 32.4439 0.813965 32.186C0.556452 31.9295 0.352095 31.6247 0.212585 31.2891C0.0730763 30.9534 0.00116933 30.5935 0.000976562 30.23C0.00133234 29.866 0.0734948 29.5057 0.213348 29.1697C0.353202 28.8337 0.558 28.5287 0.815979 28.272C1.0732 28.0142 1.37869 27.8096 1.715 27.6699C2.0513 27.5303 2.41182 27.4583 2.77597 27.458H3.79996C3.65868 26.1976 3.83362 24.9219 4.30896 23.7461C4.89596 22.4631 5.97497 21.452 7.86597 20.209C8.19297 19.994 8.45497 19.828 8.71597 19.665C10.184 18.739 11.745 17.7529 11.745 16.7649C11.745 15.7769 10.183 14.794 8.71597 13.865C8.45397 13.701 8.19197 13.536 7.86597 13.321C5.90297 12.031 4.81096 10.9301 4.23996 9.54907C3.78108 8.26883 3.62934 6.8987 3.79697 5.54907H2.77197C2.40777 5.54911 2.04713 5.47709 1.71078 5.3374C1.37444 5.19771 1.069 4.99314 0.811981 4.73511C0.553924 4.4786 0.349128 4.17359 0.209381 3.83765C0.0696338 3.5017 -0.00231934 3.14144 -0.00231934 2.77759C-0.00231934 2.41374 0.0696338 2.05347 0.209381 1.71753C0.349128 1.38159 0.553924 1.07657 0.811981 0.820068C1.0683 0.562198 1.37303 0.357468 1.70871 0.217773C2.04439 0.0780786 2.40439 0.00620861 2.76797 0.00610352H24.221C24.5845 0.00631811 24.9445 0.078329 25.2802 0.218018C25.6158 0.357706 25.9206 0.562286 26.177 0.820068C26.4351 1.07683 26.64 1.38207 26.7798 1.71826C26.9195 2.05446 26.9915 2.41496 26.9915 2.77905C26.9915 3.14315 26.9195 3.50365 26.7798 3.83984C26.64 4.17604 26.4351 4.48128 26.177 4.73804C25.9199 4.99607 25.6145 5.20089 25.2781 5.34058C24.9418 5.48026 24.5812 5.55204 24.217 5.552H23.2C23.368 6.90155 23.2165 8.27169 22.758 9.552C22.187 10.933 21.095 12.034 19.132 13.324C18.8 13.544 18.542 13.7049 18.281 13.8689C16.814 14.7939 15.252 15.78 15.252 16.769C15.252 17.758 16.815 18.7399 18.284 19.6689C18.618 19.8789 18.954 20.092 19.133 20.21C21.026 21.455 22.109 22.444 22.697 23.718C23.1768 24.9025 23.3488 26.1891 23.197 27.458H24.222C24.9574 27.4587 25.6624 27.7515 26.182 28.272C26.4401 28.5286 26.645 28.8337 26.785 29.1697C26.9251 29.5057 26.9974 29.866 26.998 30.23C26.9966 30.9653 26.704 31.67 26.184 32.1899C25.6641 32.7099 24.9593 33.0026 24.224 33.0039L2.77396 33ZM2.77396 31.021H24.227C24.4383 31.021 24.641 30.9375 24.7909 30.7886C24.9408 30.6396 25.0257 30.4374 25.027 30.2261C25.0274 30.122 25.0072 30.0189 24.9678 29.9226C24.9283 29.8263 24.8703 29.7389 24.797 29.665C24.7234 29.5908 24.6358 29.5318 24.5394 29.4915C24.443 29.4511 24.3395 29.4302 24.235 29.4299H2.77396C2.56296 29.4311 2.36099 29.5157 2.21198 29.665C2.13836 29.7387 2.08005 29.8261 2.04041 29.9224C2.00076 30.0186 1.98054 30.1219 1.98096 30.2261C1.98132 30.4371 2.06507 30.6395 2.21396 30.7891C2.3626 30.9374 2.56395 31.0208 2.77396 31.021ZM9.76898 21.3259C9.46098 21.5199 9.15797 21.7111 8.94797 21.8491C7.76824 22.4733 6.78373 23.4111 6.10297 24.5591C5.76032 25.4825 5.64773 26.4752 5.77496 27.4519H21.23C21.3634 26.4686 21.2518 25.4678 20.905 24.5381C20.2177 23.399 19.2317 22.4698 18.054 21.8511C17.697 21.6161 17.469 21.473 17.236 21.325C15.698 20.356 14.083 19.338 13.502 17.906C12.919 19.339 11.3 20.3579 9.76898 21.3259ZM6.06897 8.79907C6.72117 10.0245 7.72574 11.0263 8.95297 11.675C9.16297 11.812 9.46596 12.004 9.77396 12.197C11.31 13.166 12.925 14.184 13.505 15.615C14.086 14.184 15.705 13.166 17.237 12.197C17.544 12.004 17.852 11.81 18.057 11.675C19.2845 11.0267 20.2892 10.0248 20.941 8.79907C21.2811 7.76865 21.3814 6.67418 21.234 5.59912H5.77097C5.62296 6.6745 5.72319 7.76941 6.06396 8.80005L6.06897 8.79907ZM2.21597 2.20801C2.06849 2.35768 1.98581 2.5594 1.98581 2.76953C1.98581 2.97966 2.06849 3.18138 2.21597 3.33105C2.36539 3.48031 2.56776 3.56431 2.77896 3.56494H24.232C24.3364 3.56488 24.4399 3.54431 24.5363 3.50415C24.6328 3.46399 24.7203 3.40516 24.794 3.33105C24.8677 3.25732 24.9262 3.16983 24.9661 3.07349C25.006 2.97714 25.0266 2.87381 25.0266 2.76953C25.0266 2.66525 25.006 2.56192 24.9661 2.46558C24.9262 2.36923 24.8677 2.28174 24.794 2.20801C24.6444 2.05912 24.442 1.97546 24.231 1.9751H2.77396C2.5629 1.97546 2.36055 2.05912 2.21097 2.20801H2.21597Z" fill="#F55767"/>
</svg>
