<svg width="33" height="31" viewBox="0 0 33 31" fill="none" xmlns="http://www.w3.org/2000/svg">
<path d="M21.534 20.7781C21.4077 20.7781 21.2825 20.7532 21.1658 20.7048C21.0491 20.6565 20.9431 20.5856 20.8538 20.4963C20.7644 20.407 20.6935 20.3009 20.6452 20.1842C20.5969 20.0675 20.572 19.9424 20.572 19.816C20.572 19.6897 20.5969 19.5646 20.6452 19.4479C20.6935 19.3312 20.7644 19.2251 20.8538 19.1358C20.9431 19.0465 21.0491 18.9756 21.1658 18.9273C21.2825 18.8789 21.4077 18.854 21.534 18.854H25.072C26.6416 18.86 28.1515 18.2521 29.279 17.16C29.8298 16.63 30.268 15.9942 30.5673 15.2909C30.8666 14.5875 31.0208 13.8309 31.0208 13.0665C31.0208 12.3021 30.8666 11.5456 30.5673 10.8422C30.268 10.1388 29.8298 9.50306 29.279 8.97303C28.1515 7.88098 26.6416 7.27303 25.072 7.27903C24.846 7.27903 24.641 7.28804 24.461 7.30604C24.261 7.32604 24.061 7.35538 23.861 7.39405C23.6354 7.44076 23.4006 7.40739 23.1969 7.29972C22.9932 7.19204 22.8334 7.01679 22.745 6.80405C22.1574 5.35396 21.1442 4.1159 19.839 3.25303C18.3133 2.24762 16.4913 1.79057 14.6718 1.95682C12.8522 2.12308 11.1431 2.90278 9.82495 4.16804C9.09601 4.8704 8.51597 5.71238 8.11945 6.64374C7.72292 7.57511 7.51803 8.57676 7.51697 9.58902C7.51697 9.61402 7.51697 9.64004 7.51697 9.66504V9.70505C7.51538 9.96267 7.41159 10.2091 7.22839 10.3902C7.0452 10.5714 6.7976 10.6724 6.53998 10.671H6.48499L6.31598 10.663H6.18799C5.07709 10.6593 4.00874 11.0899 3.211 11.863C2.82103 12.238 2.51075 12.6877 2.29883 13.1855C2.08691 13.6832 1.97766 14.2186 1.97766 14.7595C1.97766 15.3005 2.08691 15.8359 2.29883 16.3336C2.51075 16.8313 2.82103 17.2811 3.211 17.656C4.0088 18.4291 5.07711 18.8597 6.18799 18.8561H10.94C11.1951 18.8561 11.4398 18.9574 11.6202 19.1378C11.8006 19.3182 11.902 19.5629 11.902 19.818C11.902 20.0732 11.8006 20.3179 11.6202 20.4983C11.4398 20.6787 11.1951 20.78 10.94 20.78H6.18799C4.55524 20.7854 2.98494 20.1528 1.81195 19.017C1.2383 18.4664 0.781887 17.8055 0.470093 17.0741C0.158298 16.3426 -0.00244141 15.5557 -0.00244141 14.7605C-0.00244141 13.9654 0.158298 13.1785 0.470093 12.447C0.781887 11.7155 1.2383 11.0546 1.81195 10.504C2.83115 9.51394 4.15744 8.90088 5.57196 8.76603C5.77514 6.50087 6.78808 4.38488 8.42499 2.80604C10.0728 1.22207 12.2107 0.246203 14.487 0.0390065C16.7633 -0.16819 19.0422 0.405645 20.949 1.66605C22.3591 2.59942 23.5011 3.88479 24.262 5.39502C24.546 5.36702 24.815 5.35303 25.062 5.35303C27.1537 5.34625 29.1653 6.15686 30.668 7.61204C31.4019 8.31738 31.9857 9.16368 32.3846 10.1002C32.7834 11.0367 32.989 12.0441 32.989 13.062C32.989 14.08 32.7834 15.0874 32.3846 16.0239C31.9857 16.9604 31.4019 17.8067 30.668 18.512C29.1653 19.9672 27.1537 20.7778 25.062 20.771L21.534 20.7781Z" fill="#333333"/>
<path d="M15.511 10.1171C15.511 9.85477 15.6152 9.6032 15.8007 9.41772C15.9861 9.23225 16.2377 9.12805 16.5 9.12805C16.7623 9.12805 17.0138 9.23225 17.1993 9.41772C17.3848 9.6032 17.489 9.85477 17.489 10.1171V29.0381C17.489 29.3004 17.3848 29.5519 17.1993 29.7374C17.0138 29.9229 16.7623 30.0271 16.5 30.0271C16.2377 30.0271 15.9861 29.9229 15.8007 29.7374C15.6152 29.5519 15.511 29.3004 15.511 29.0381V10.1171Z" fill="#333333"/>
<path d="M23.302 14.7981C23.3933 14.8858 23.466 14.9911 23.5156 15.1076C23.5653 15.2241 23.5909 15.3494 23.5909 15.4761C23.5909 15.6027 23.5653 15.7281 23.5156 15.8446C23.466 15.9611 23.3933 16.0663 23.302 16.1541C23.1145 16.3342 22.8645 16.4348 22.6045 16.4348C22.3445 16.4348 22.0945 16.3342 21.907 16.1541L16.507 10.8541L11.107 16.1541C10.9195 16.3342 10.6695 16.4348 10.4095 16.4348C10.1495 16.4348 9.89952 16.3342 9.71198 16.1541C9.62063 16.0663 9.54794 15.9611 9.49829 15.8446C9.44864 15.7281 9.42303 15.6027 9.42303 15.4761C9.42303 15.3494 9.44864 15.2241 9.49829 15.1076C9.54794 14.9911 9.62063 14.8858 9.71198 14.7981L15.812 8.81207C15.9995 8.63197 16.2494 8.53137 16.5095 8.53137C16.7695 8.53137 17.0194 8.63197 17.207 8.81207L23.3069 14.7981H23.302Z" fill="#333333"/>
<path d="M15.511 29.038V11.821L11.097 16.1508C10.9093 16.3324 10.6582 16.434 10.397 16.434C10.1358 16.434 9.88481 16.3324 9.69702 16.1508C9.6058 16.063 9.53321 15.9578 9.48364 15.8413C9.43408 15.7248 9.40857 15.5995 9.40857 15.4728C9.40857 15.3462 9.43408 15.2209 9.48364 15.1044C9.53321 14.9879 9.6058 14.8827 9.69702 14.7949L15.797 8.80903C15.9849 8.62768 16.2358 8.52632 16.4969 8.52632C16.7581 8.52632 17.0091 8.62768 17.197 8.80903L23.297 14.7949C23.3882 14.8827 23.4608 14.9879 23.5104 15.1044C23.5599 15.2209 23.5854 15.3462 23.5854 15.4728C23.5854 15.5995 23.5599 15.7248 23.5104 15.8413C23.4608 15.9578 23.3882 16.063 23.297 16.1508C23.1096 16.3309 22.8598 16.4316 22.6 16.4316C22.3401 16.4316 22.0903 16.3309 21.903 16.1508L17.489 11.821V29.038C17.4776 29.2926 17.3683 29.5328 17.1841 29.7089C16.9999 29.8851 16.7549 29.9833 16.5 29.9833C16.2451 29.9833 16.0001 29.8851 15.8159 29.7089C15.6317 29.5328 15.5224 29.2926 15.511 29.038ZM21.5341 20.778C21.2789 20.778 21.0342 20.6767 20.8538 20.4963C20.6733 20.3159 20.572 20.071 20.572 19.8159C20.572 19.5607 20.6733 19.3161 20.8538 19.1357C21.0342 18.9553 21.2789 18.854 21.5341 18.854H25.071C26.6412 18.8602 28.1516 18.2517 29.2791 17.1589C29.8299 16.6288 30.268 15.9931 30.5673 15.2897C30.8666 14.5864 31.0209 13.8298 31.0209 13.0654C31.0209 12.301 30.8666 11.5444 30.5673 10.841C30.268 10.1376 29.8299 9.50191 29.2791 8.97187C28.1512 7.87976 26.641 7.27198 25.071 7.27802C24.846 7.27802 24.6411 7.28688 24.4611 7.30488C24.2597 7.32376 24.0593 7.35327 23.861 7.39301C23.6354 7.43953 23.4006 7.40594 23.197 7.29829C22.9934 7.19064 22.8336 7.01554 22.745 6.80293C22.1575 5.3525 21.1443 4.11411 19.839 3.25093C18.3134 2.24577 16.4916 1.78877 14.6722 1.95503C12.8529 2.12128 11.1441 2.90096 9.82605 4.16596C9.09702 4.86826 8.5169 5.71017 8.12036 6.64155C7.72383 7.57293 7.51889 8.57458 7.51794 9.58686C7.51794 9.61186 7.51794 9.63901 7.51794 9.66401V9.70405C7.51729 9.83165 7.4916 9.95777 7.44214 10.0754C7.39267 10.193 7.32047 10.2996 7.22974 10.3894C7.139 10.4791 7.0315 10.5502 6.91333 10.5983C6.79516 10.6465 6.66861 10.6707 6.54102 10.6699H6.48596L6.31799 10.663H6.18994C5.07896 10.6588 4.01052 11.0895 3.21301 11.863C2.82295 12.2377 2.51265 12.6874 2.30066 13.185C2.08867 13.6827 1.97937 14.2181 1.97937 14.759C1.97937 15.2999 2.08867 15.8353 2.30066 16.333C2.51265 16.8306 2.82295 17.2802 3.21301 17.655C4.01064 18.4283 5.079 18.8589 6.18994 18.8549H10.942C11.1972 18.8549 11.4418 18.9563 11.6222 19.1367C11.8026 19.3171 11.9041 19.5617 11.9041 19.8168C11.9041 20.072 11.8026 20.3169 11.6222 20.4973C11.4418 20.6777 11.1972 20.779 10.942 20.779H6.18994C4.55689 20.7845 2.98634 20.1519 1.81299 19.0161C1.2401 18.465 0.784335 17.8039 0.473022 17.0725C0.16171 16.3411 0.0012207 15.5544 0.0012207 14.7595C0.0012207 13.9646 0.16171 13.1779 0.473022 12.4465C0.784335 11.7151 1.2401 11.0539 1.81299 10.5029C2.83415 9.51335 4.16227 8.9018 5.578 8.76899C5.781 6.50399 6.79358 4.38808 8.43005 2.80903C10.0779 1.22507 12.2158 0.249138 14.4921 0.0419407C16.7683 -0.165256 19.0472 0.408488 20.954 1.66889C22.3644 2.60243 23.5064 3.8882 24.267 5.39887C24.551 5.37087 24.82 5.35688 25.067 5.35688C27.1591 5.35005 29.171 6.16068 30.674 7.61592C31.4079 8.32126 31.9918 9.16769 32.3906 10.1042C32.7895 11.0407 32.9951 12.048 32.9951 13.0659C32.9951 14.0838 32.7895 15.0913 32.3906 16.0278C31.9918 16.9643 31.4079 17.8107 30.674 18.5161C29.171 19.9713 27.1591 20.7817 25.067 20.7749L21.5341 20.778Z" fill="#D6AB00"/>
</svg>
